<svg xmlns="http://www.w3.org/2000/svg" width="512" height="512" viewBox="0 0 39 39" shape-rendering="crispEdges"><path stroke="#7c3aed" d="M1 1.5h7m2 0h1m2 0h3m1 0h1m1 0h3m1 0h1m3 0h1m3 0h7M1 2.5h1m5 0h1m2 0h1m1 0h1m1 0h1m2 0h1m4 0h1m2 0h2m4 0h1m5 0h1M1 3.5h1m1 0h3m1 0h1m1 0h1m5 0h4m1 0h1m1 0h1m3 0h2m3 0h1m1 0h3m1 0h1M1 4.5h1m1 0h3m1 0h1m1 0h3m2 0h1m1 0h3m4 0h4m1 0h2m1 0h1m1 0h3m1 0h1M1 5.5h1m1 0h3m1 0h1m5 0h2m3 0h2m1 0h4m2 0h1m3 0h1m1 0h3m1 0h1M1 6.5h1m5 0h1m2 0h2m2 0h2m2 0h1m1 0h1m2 0h1m1 0h1m5 0h1m5 0h1M1 7.5h7m1 0h1m1 0h1m1 0h1m1 0h1m1 0h1m1 0h1m1 0h1m1 0h1m1 0h1m1 0h1m1 0h1m1 0h7M10 8.5h1m3 0h2m1 0h2m1 0h2m2 0h3m1 0h2M4 9.5h2m1 0h2m1 0h3m1 0h1m1 0h2m1 0h3m1 0h2m1 0h1m2 0h1m4 0h2M1 10.5h2m1 0h3m4 0h7m3 0h3m1 0h2m4 0h1m1 0h2M1 11.5h1m1 0h5m1 0h1m3 0h1m1 0h2m1 0h4m2 0h3m3 0h2m2 0h2m1 0h1M2 12.5h1m1 0h1m3 0h1m2 0h1m2 0h1m1 0h1m2 0h1m2 0h1m2 0h1m1 0h2m1 0h3m1 0h2M1 13.5h2m1 0h6m1 0h2m4 0h1m1 0h4m2 0h1m3 0h1m1 0h1M1 14.5h1m2 0h3m2 0h2m1 0h1m1 0h2m1 0h1m1 0h1m2 0h2m2 0h3m1 0h1m2 0h1m1 0h2M3 15.5h5m2 0h1m1 0h3m2 0h1m2 0h2m1 0h1m1 0h2m1 0h2m1 0h1m2 0h4M5 16.5h1m3 0h1m3 0h1m5 0h1m3 0h1m1 0h1m2 0h1m1 0h1m3 0h2m1 0h1M1 17.5h1m4 0h5m3 0h5m1 0h2m3 0h2m4 0h2m2 0h2M4 18.5h2m5 0h2m3 0h1m1 0h4m1 0h1m2 0h5m1 0h1m1 0h3M1 19.5h3m2 0h3m1 0h1m2 0h3m1 0h4m1 0h2m1 0h2m1 0h1m1 0h1m2 0h1m1 0h1m1 0h1M6 20.5h1m2 0h8m1 0h1m2 0h9m4 0h1m1 0h2M4 21.5h1m1 0h3m1 0h4m1 0h2m1 0h3m1 0h1m1 0h2m1 0h1m1 0h3m1 0h1m2 0h2M1 22.5h1m1 0h1m1 0h1m2 0h2m2 0h2m1 0h2m3 0h3m1 0h3m1 0h2m2 0h2M2 23.5h1m1 0h2m1 0h1m1 0h2m2 0h1m1 0h1m3 0h1m2 0h1m2 0h2m1 0h1m4 0h1m1 0h3M3 24.5h2m3 0h2m1 0h1m7 0h8m1 0h3m1 0h1m1 0h3M1 25.5h5m1 0h2m2 0h1m1 0h2m1 0h1m1 0h1m3 0h2m1 0h2m5 0h1m1 0h1M1 26.5h1m1 0h1m1 0h2m3 0h2m2 0h1m2 0h2m1 0h4m3 0h1m3 0h1m1 0h2M1 27.5h3m1 0h3m1 0h2m4 0h2m1 0h1m2 0h1m1 0h3m1 0h2m2 0h1m1 0h2m2 0h1M1 28.5h1m4 0h1m1 0h6m3 0h1m1 0h1m4 0h1m2 0h1m1 0h2m2 0h3m1 0h1M1 29.5h1m2 0h1m1 0h9m1 0h2m2 0h2m1 0h1m1 0h2m1 0h10M9 30.5h3m1 0h3m1 0h1m2 0h1m2 0h1m5 0h1m3 0h3M1 31.5h7m1 0h4m2 0h4m2 0h1m2 0h1m1 0h2m1 0h1m1 0h1m1 0h3m1 0h1M1 32.5h1m5 0h1m2 0h2m1 0h1m3 0h1m1 0h1m1 0h4m1 0h4m3 0h2m1 0h2M1 33.5h1m1 0h3m1 0h1m1 0h3m1 0h1m2 0h1m2 0h2m1 0h3m2 0h7m2 0h2M1 34.5h1m1 0h3m1 0h1m1 0h2m1 0h2m2 0h4m2 0h1m2 0h2m1 0h2m1 0h2m2 0h1M1 35.5h1m1 0h3m1 0h1m4 0h1m1 0h1m3 0h3m1 0h3m2 0h1m4 0h2m1 0h3M1 36.5h1m5 0h1m4 0h2m1 0h1m2 0h1m1 0h2m2 0h2m1 0h1m3 0h2m2 0h3M1 37.5h7m2 0h4m2 0h3m3 0h4m3 0h1m1 0h4m2 0h1"/></svg>
